<svg width="65" height="48" viewBox="0 0 65 48" fill="none" xmlns="http://www.w3.org/2000/svg">
<path d="M65 22.9298V25.0724C64.9797 25.1886 64.954 25.3027 64.9406 25.4184C64.8299 26.3504 64.7582 27.2883 64.6052 28.2134C64.1055 31.2199 63.0254 34.0144 61.4205 36.5983C58.9831 40.5214 55.6882 43.5129 51.5474 45.5559C49.1576 46.7406 46.5808 47.5019 43.9314 47.8061C43.343 47.8741 42.755 47.9352 42.1665 48L19.3315 48C19.2165 47.9786 19.102 47.9443 18.9859 47.9373C16.6833 47.7922 14.468 47.2667 12.3564 46.3417C7.75934 44.3276 4.33173 41.0634 2.08802 36.5705C1.09657 34.5887 0.454946 32.4501 0.191523 30.2493C0.12679 29.7142 0.0636626 29.1797 0 28.6451L0 26.5663C0.0219342 26.4511 0.0556379 26.3359 0.0625926 26.2202C0.181893 24.2228 0.591152 22.2833 1.31177 20.4192C3.25107 15.4035 6.6316 11.6834 11.4357 9.27572C13.9282 8.02607 16.5849 7.36937 19.3636 7.22368C20.724 7.15297 22.0834 7.22903 23.4358 7.41061C23.5584 7.42722 23.7349 7.37258 23.82 7.28527C25.7646 5.29643 27.9789 3.68094 30.4756 2.45646C32.8975 1.26894 35.4461 0.503504 38.1291 0.197116C38.7603 0.124805 39.3932 0.0653484 40.0256 0L41.9723 0C42.0997 0.0198188 42.2275 0.0423158 42.3549 0.0573138C43.3194 0.169799 44.2893 0.240504 45.2448 0.400661C48.2257 0.901486 51.0007 1.97277 53.5686 3.56417C57.506 6.00455 60.5067 9.30786 62.5568 13.4666C63.7424 15.8605 64.5035 18.4425 64.8063 21.0974C64.8759 21.7085 64.9353 22.3197 65 22.9298ZM28.6562 9.06575C28.6952 9.11717 28.7049 9.14128 28.7214 9.14931C30.0583 9.8091 31.3361 10.5827 32.5407 11.4617C32.6166 11.5169 32.8049 11.4938 32.897 11.436C36.2074 9.33571 39.7961 8.61099 43.6511 9.29554C47.4286 9.96617 50.5026 11.8559 52.8512 14.8743C55.5105 18.2901 56.5243 22.1526 55.7903 26.45C55.2982 29.3302 54.1458 31.9141 52.1872 34.0787C48.6136 38.0247 44.1385 39.6568 38.8705 38.9659C35.6275 38.5406 32.8279 37.1398 30.5109 34.7953C27.537 31.7877 24.5438 28.7999 21.5613 25.8003C21.1638 25.4007 20.7214 25.0793 20.1489 25.0091C19.1491 24.8865 18.2417 25.3862 17.81 26.2856C17.4248 27.0885 17.4746 27.9938 18.3102 28.8165C21.6351 32.0845 24.9306 35.3824 28.2517 38.6536C28.8202 39.2163 29.4298 39.7357 30.0755 40.2075C32.5016 41.9713 35.237 42.9467 38.1991 43.3394C40.5242 43.6468 42.831 43.581 45.1202 43.0657C49.4867 42.0838 53.1037 39.8523 55.9524 36.4092C58.3047 33.5639 59.7272 30.2943 60.2232 26.6236C60.5106 24.5303 60.4505 22.404 60.0456 20.3303C59.3849 16.9397 57.9522 13.9058 55.6566 11.3235C51.2767 6.39932 45.7664 4.20104 39.2092 4.69169C36.6868 4.88024 34.3007 5.6221 32.0554 6.79891C30.8438 7.42921 29.704 8.18927 28.6562 9.06575ZM27.0518 43.4411C26.9615 43.3574 26.8717 43.2733 26.7821 43.1889C25.4228 41.9039 24.0559 40.6269 22.7126 39.3253C22.4526 39.0735 22.2134 38.9509 21.8454 38.9594C20.4849 38.9926 19.1234 38.9985 17.7827 38.6954C11.1169 37.1859 7.2463 29.9296 9.70292 23.5447C11.6406 18.5102 17.0049 15.4442 22.2947 16.3896C24.6658 16.8133 26.7468 17.8181 28.455 19.582C30.5382 21.7353 32.6835 23.827 34.7892 25.9583C35.2685 26.4436 35.819 26.6648 36.4829 26.57C37.341 26.4473 38.0242 26.0381 38.3345 25.1956C38.6384 24.3664 38.4912 23.5811 37.8642 22.9453C35.6542 20.7037 33.4967 18.4058 31.1973 16.2594C26.7377 12.0948 21.4789 10.8564 15.6626 12.6272C7.83959 15.0071 3.26123 23.0953 5.0486 31.0764C6.67761 38.3483 13.0294 43.4519 20.4619 43.4583C22.5371 43.4604 24.6128 43.4594 26.688 43.4583C26.7907 43.4583 26.8934 43.4492 27.0518 43.4411Z" fill="#08004E"/>
</svg>
