<svg width="51" height="51" viewBox="0 0 51 51" fill="none" xmlns="http://www.w3.org/2000/svg">
<g clip-path="url(#clip0_1_228)">
<path d="M20.2898 26.3545H14.9692V31.4545H20.0141C20.786 31.4545 22.2195 31.2064 22.2195 28.9734C22.2195 26.3269 20.2898 26.3545 20.2898 26.3545Z" fill="#EFEFEF"/>
<path d="M33.908 23.4048C31.0686 23.4048 30.6826 26.3545 30.6826 26.3545H36.6923C36.6923 26.3545 36.7199 23.4048 33.908 23.4048Z" fill="#EFEFEF"/>
<path d="M21.5855 21.1445C21.5855 19.1597 20.2898 19.1597 20.2898 19.1597H14.9692V23.4051H19.959C20.8136 23.4051 21.5855 23.1294 21.5855 21.1445Z" fill="#EFEFEF"/>
<path d="M41.4892 0H9.51081C4.24541 0 0 4.24541 0 9.51081V41.4892C0 46.7546 4.24541 51 9.51081 51H41.4892C46.7546 51 51 46.7546 51 41.4892V9.51081C51 4.24541 46.7546 0 41.4892 0ZM29.9108 16.8989H37.4643V19.2422H29.9108V16.8989ZM26.0789 29.2216C26.0789 35.0384 20.2622 34.8454 20.2622 34.8454H10.7514V15.7686H20.2622C23.1568 15.7686 25.4449 17.4227 25.4449 20.8411C25.4449 24.2595 22.6605 24.48 22.6605 24.48C26.327 24.48 26.0789 29.2216 26.0789 29.2216ZM40.2211 28.8908H30.7378C30.7378 32.447 33.9632 32.1989 33.9632 32.1989C36.9957 32.1989 36.8854 30.1589 36.8854 30.1589H40.1108C40.1108 35.6173 33.853 35.2314 33.853 35.2314C26.327 35.2314 26.8232 27.9535 26.8232 27.9535C26.8232 27.9535 26.8232 20.6205 33.853 20.6205C41.2686 20.6205 40.2211 28.8908 40.2211 28.8908Z" fill="#EFEFEF"/>
</g>
<defs>
<clipPath id="clip0_1_228">
<rect width="51" height="51" fill="white"/>
</clipPath>
</defs>
</svg>
