<svg width="41" height="56" viewBox="0 0 41 56" fill="none" xmlns="http://www.w3.org/2000/svg">
<path fill-rule="evenodd" clip-rule="evenodd" d="M17.8212 4.35797H11.1664C7.49113 4.35797 4.51169 7.23589 4.51169 10.786C4.51169 14.3361 7.49113 17.214 11.1664 17.214H17.8212V4.35797ZM17.8212 0H22.3329H28.9876C35.1549 0 40.1538 4.82903 40.1538 10.786C40.1538 14.3013 38.4132 17.4239 35.7184 19.393C38.4132 21.3621 40.1538 24.4847 40.1538 28C40.1538 33.9569 35.1549 38.786 28.9876 38.786C26.4941 38.786 24.1914 37.9965 22.3329 36.6622V38.786V45.214C22.3329 51.1709 17.3335 56 11.1664 56C4.99936 56 0 51.1709 0 45.214C0 41.6984 1.74097 38.5761 4.43554 36.607C1.74097 34.6378 0 31.5153 0 28C0 24.4847 1.74102 21.3621 4.43563 19.393C1.74102 17.4239 0 14.3013 0 10.786C0 4.82903 4.99936 0 11.1664 0H17.8212ZM22.3329 4.35797V17.214H28.9876C32.6631 17.214 35.6422 14.3361 35.6422 10.786C35.6422 7.23589 32.6631 4.35797 28.9876 4.35797H22.3329ZM11.1664 34.4279H17.8212V28.0166V28V27.9835V21.572H11.1664C7.49113 21.572 4.51169 24.4499 4.51169 28C4.51169 31.5416 7.47687 34.4143 11.14 34.428L11.1664 34.4279ZM4.51169 45.214C4.51169 41.6723 7.47687 38.7997 11.14 38.786L11.1664 38.786H17.8212V45.214C17.8212 48.764 14.8418 51.642 11.1664 51.642C7.49113 51.642 4.51169 48.764 4.51169 45.214ZM22.3329 27.9872C22.3401 24.443 25.3167 21.572 28.9876 21.572C32.6631 21.572 35.6422 24.4499 35.6422 28C35.6422 31.5501 32.6631 34.428 28.9876 34.428C25.3167 34.428 22.3401 31.557 22.3329 28.0128V27.9872Z" fill="#08004E"/>
</svg>
