<svg width="51" height="51" viewBox="0 0 51 51" fill="none" xmlns="http://www.w3.org/2000/svg">
<g clip-path="url(#clip0_1_238)">
<path d="M25.4724 20.3174C22.6054 20.3174 20.2346 22.6606 20.207 25.5001C20.207 28.3395 22.5503 30.6828 25.4449 30.7104C28.3119 30.7104 30.6827 28.3671 30.7103 25.5277C30.7103 22.6882 28.367 20.345 25.4724 20.3174Z" fill="#EFEFEF"/>
<path d="M33.3568 12.8463C30.7655 12.4879 28.1466 12.736 25.5276 12.6809C23.3222 12.6809 21.1168 12.6257 18.9114 12.6809C15.4655 12.7636 13.3703 14.3625 12.7363 17.3398C12.5984 17.9738 12.5157 18.6079 12.4882 19.2695C12.4882 23.4322 12.4055 27.5949 12.4882 31.7852C12.5709 35.9203 14.666 38.1533 18.6633 38.2911C23.1844 38.4565 27.7055 38.4565 32.2265 38.2911C35.5622 38.1809 37.5471 36.5819 38.1811 33.6873C38.2914 33.1636 38.4017 32.6398 38.4017 32.116C38.4017 27.3744 38.6774 22.6052 38.2638 17.8636C38.0157 15.0517 36.1136 13.2046 33.3293 12.8463H33.3568ZM25.5001 33.77C20.9238 33.8252 17.1195 30.0484 17.1471 25.4446C17.1471 20.9236 21.0066 17.1468 25.5276 17.2295C30.159 17.3122 33.8255 21.0063 33.7979 25.5549C33.7979 30.0209 30.0763 33.7149 25.5001 33.77ZM34.0736 19.0214C32.9709 19.049 32.006 18.1668 32.006 17.0641C32.006 15.9614 32.8882 15.0792 34.0184 15.0517C35.1211 15.0517 36.0584 15.9614 36.0584 17.0365C36.0584 18.0841 35.1487 18.9663 34.0736 18.9938V19.0214Z" fill="#EFEFEF"/>
<path d="M41.4892 0H9.51081C4.24541 0 0 4.24541 0 9.51081V41.4892C0 46.7546 4.24541 51 9.51081 51H41.4892C46.7546 51 51 46.7546 51 41.4892V9.51081C51 4.24541 46.7546 0 41.4892 0ZM41.5168 31.9784C41.4341 35.4519 40.2211 38.4292 36.9681 40.1935C35.4795 41.0205 33.8254 41.3514 32.1438 41.3789C27.7054 41.4341 23.267 41.4616 18.8562 41.3789C15.5205 41.2962 12.6535 40.1935 10.8065 37.1611C10.007 35.8654 9.73135 34.3768 9.45568 32.9157V18.1119C9.73135 16.6508 10.007 15.1622 10.8065 13.8665C12.6259 10.8892 15.493 9.73135 18.7735 9.67622C23.267 9.56595 27.7605 9.56595 32.2541 9.67622C35.3141 9.75892 38.0157 10.7514 39.8627 13.3978C41.0481 15.107 41.4892 17.0368 41.5443 19.0492C41.5995 23.3773 41.627 27.6778 41.5443 32.0059L41.5168 31.9784Z" fill="#EFEFEF"/>
</g>
<defs>
<clipPath id="clip0_1_238">
<rect width="51" height="51" fill="white"/>
</clipPath>
</defs>
</svg>
