<svg width="51" height="51" viewBox="0 0 51 51" fill="none" xmlns="http://www.w3.org/2000/svg">
<g clip-path="url(#clip0_1_235)">
<path d="M41.4892 0H9.51081C4.24541 0 0 4.24541 0 9.51081V41.4892C0 46.7546 4.24541 51 9.51081 51H41.4892C46.7546 51 51 46.7546 51 41.4892V9.51081C51 4.24541 46.7546 0 41.4892 0ZM18.36 38.3741H12.6259V19.7659H18.36V38.3741ZM15.493 18.36C13.7838 18.36 12.6259 17.0643 12.6259 15.6308C12.6259 14.0595 13.7838 12.6259 15.493 12.6259C17.2022 12.6259 18.36 13.9216 18.36 15.493C18.36 17.0643 17.3676 18.36 15.493 18.36ZM38.3741 38.3741H32.64V28.5049C32.64 26.2168 31.7854 24.5076 29.773 24.5076C28.2016 24.5076 27.4849 25.8032 27.0438 26.7957C26.9059 27.2368 26.9059 27.6503 26.9059 28.2292V38.4016H21.1719V26.1065C21.1719 23.9562 21.0341 22.1092 21.0341 20.5378H26.1892L26.4649 22.9638H26.6027C27.3195 21.8059 29.0286 20.0968 32.0335 20.0968C35.6173 20.0968 38.3189 22.5227 38.3189 27.8157V38.4016L38.3741 38.3741Z" fill="#EFEFEF"/>
</g>
<defs>
<clipPath id="clip0_1_235">
<rect width="51" height="51" fill="white"/>
</clipPath>
</defs>
</svg>
