<svg width="96" height="32" viewBox="0 0 96 32" fill="none" xmlns="http://www.w3.org/2000/svg">
<path d="M58.3569 4.23183C58.354 3.66557 58.573 3.1207 58.9672 2.71405C59.3613 2.30741 59.899 2.07136 60.4651 2.05649C61.04 2.0632 61.5893 2.29454 61.9959 2.70105C62.4024 3.10757 62.6338 3.65698 62.6404 4.23183C62.6269 4.79835 62.3912 5.33684 61.9843 5.73122C61.5774 6.12558 61.0318 6.34423 60.4651 6.34C59.9077 6.33461 59.3746 6.11078 58.9803 5.71657C58.5862 5.32238 58.3623 4.78928 58.3569 4.23183ZM75.2325 8.8202C76.2659 8.8202 76.9274 9.39374 76.9274 10.6442C76.8107 11.8642 76.5093 13.0594 76.0335 14.1887C75.2016 16.4261 74.3387 18.9838 73.4087 21.8929C72.9952 20.4874 72.1943 18.2759 71.2023 15.6925L70.3393 13.3259C69.9404 12.3694 69.6929 11.3565 69.6056 10.3238C69.5786 10.1339 69.5921 9.94033 69.6451 9.75596C69.6983 9.57158 69.7899 9.40056 69.9138 9.25412C70.0378 9.10769 70.1914 8.98917 70.3645 8.90636C70.5376 8.82355 70.7262 8.77834 70.9181 8.77369V8.35516H63.6841V8.77369C64.6711 8.8667 65.472 9.8071 66.526 12.6076L71.1299 24.7865C71.4333 25.477 71.5738 26.228 71.5408 26.9815C71.5076 27.7349 71.3016 28.4707 70.9388 29.132C70.422 30.2842 69.6573 30.8577 68.7634 30.8577C67.6473 30.8577 67.0686 30.3772 67.0686 29.3904C67.0686 29.0027 67.8075 28.238 67.8075 27.5043C67.8075 26.4709 67.0066 26.0007 66.1127 26.0007C65.8293 25.9909 65.5469 26.0413 65.2845 26.1487C65.022 26.256 64.7852 26.4178 64.5899 26.6234C64.3946 26.8291 64.2451 27.0737 64.1512 27.3414C64.0575 27.609 64.0216 27.8935 64.0458 28.176C64.0876 29.1534 64.514 30.0745 65.2323 30.7385C65.9506 31.4026 66.9022 31.7557 67.8799 31.7207C68.3561 31.737 68.8308 31.6593 69.2768 31.4917C69.7228 31.3241 70.1313 31.07 70.4789 30.7441C70.8612 30.4599 71.3417 29.4678 71.6001 28.9873C71.7925 28.6068 71.9534 28.211 72.0806 27.804C72.3029 27.2615 72.432 26.8171 72.525 26.5278C72.618 26.2383 72.8144 25.7578 73.0418 25.0241L73.5584 23.3965C74.9329 19.1129 76.2453 15.372 77.4906 12.2098C78.2244 10.3858 79.1854 9.30073 79.6659 9.07855C79.9242 8.93819 80.2033 8.84049 80.4927 8.7892V8.37065H75.2325V8.8202ZM24.7709 23.9391C23.8409 23.7789 23.0451 22.947 23.0451 21.1902V0.00516695L17.7748 1.14709V1.59662C18.6686 1.49845 19.5677 2.29934 19.5677 3.99414V21.1902C19.5677 22.854 18.6686 23.8098 17.7748 23.9391L17.5216 23.9701C17.0643 24.0027 16.6061 23.9212 16.1884 23.7323C15.4279 23.3829 14.7967 22.8025 14.3851 22.0737L11.9411 18.1468C11.4268 17.3246 10.6601 16.691 9.7557 16.3407C8.8513 15.9905 7.85782 15.9425 6.92388 16.2039L9.67276 13.1657C11.7396 10.8664 13.6721 9.39374 15.4909 8.7892V8.37065H9.46091V8.7892C11.011 9.39374 10.9335 10.7372 9.14055 12.8454L5.27559 17.3563V0L0 1.14709V1.59662C0.893903 1.59662 1.79297 2.49053 1.79297 4.05615V21.1902C1.79297 23.0761 0.930073 23.8098 0 23.9391V24.3524H7.00138V23.9391C5.84913 23.7789 5.27559 22.9056 5.27559 21.1902V18.0279L6.7792 16.3899L10.422 22.3683C11.2849 23.8047 12.0806 24.3782 13.3621 24.3782H25.5253V24.0527C25.5253 24.0527 25.1739 24.0062 24.7709 23.9391ZM40.9955 23.9855V24.4041C40.9955 24.4041 37.4097 25.6907 36.3245 23.505C36.0353 22.9283 35.8766 22.295 35.8595 21.65C35.3666 22.6032 34.6186 23.4007 33.699 23.9536C32.7792 24.5065 31.7241 24.793 30.6511 24.7813C28.0676 24.7813 26.2074 23.5671 26.2074 20.9112C26.2058 20.2385 26.4076 19.5812 26.7861 19.0252C27.5508 17.8781 28.4448 17.2684 30.1086 16.6277C30.9405 16.3124 31.6587 16.0851 32.1754 15.9249C32.6921 15.7647 33.4207 15.6046 34.2421 15.4496L35.8595 15.0621V13.145C35.8595 9.95178 34.485 8.49467 32.568 8.49467C31.0644 8.49467 30.2016 9.48675 30.2016 10.639C30.2016 11.2746 30.6511 12.1891 30.6511 12.8763C30.6511 13.7703 29.8502 14.4265 28.7341 14.4265C27.618 14.4265 27.0755 13.5636 27.0755 12.4113C27.0755 11.259 27.649 10.205 28.8323 9.31107C29.9557 8.43959 31.3374 7.96693 32.7592 7.96763C37.2494 7.96763 39.2077 10.0965 39.2801 14.7727V21.8103V21.9084C39.2956 22.3683 39.4247 24.2388 40.9955 23.9855ZM35.8595 15.5426C35.6683 15.6407 35.2239 15.8009 34.485 16.0592L33.0176 16.6018C32.6455 16.7775 32.3768 16.9222 31.8343 17.2115C31.4166 17.4107 31.037 17.6817 30.713 18.0125C30.1722 18.6224 29.8567 19.3992 29.8192 20.2135C29.8192 22.0996 30.8526 23.1227 32.4028 23.1227C33.2559 23.096 34.0722 22.7683 34.7072 22.1978C35.079 21.8979 35.3764 21.516 35.5762 21.0823C35.7761 20.6485 35.873 20.1744 35.8595 19.6969V15.5426ZM95.0483 16.3899C95.0631 17.4923 94.8588 18.5866 94.4472 19.6093C94.0356 20.632 93.425 21.5628 92.6507 22.3475C91.9161 23.1257 91.0304 23.7457 90.0476 24.1693C89.065 24.5931 88.0062 24.8117 86.936 24.8117C85.8659 24.8117 84.807 24.5931 83.8243 24.1693C82.8417 23.7457 81.9558 23.1257 81.2212 22.3475C79.6746 20.753 78.822 18.6112 78.8495 16.3899C78.833 15.295 79.0342 14.2078 79.4413 13.1912C79.8484 12.1748 80.4535 11.2493 81.2212 10.4685C81.9507 9.68151 82.8348 9.05366 83.8182 8.62429C84.8016 8.19494 85.863 7.97331 86.936 7.97331C88.009 7.97331 89.0705 8.19494 90.0539 8.62429C91.0373 9.05366 91.9214 9.68151 92.6507 10.4685C93.4272 11.2442 94.0397 12.1682 94.4515 13.1855C94.8635 14.2028 95.0664 15.2925 95.0483 16.3899ZM89.8244 10.7062C89.1888 9.46608 88.3569 8.74268 87.3856 8.54634C85.4065 8.14847 83.66 10.1791 83.009 13.4137C82.7281 14.8635 82.6603 16.3466 82.8075 17.816C82.9478 19.2965 83.3557 20.7391 84.0114 22.0737C84.647 23.3087 85.4789 24.0321 86.4554 24.2284C88.4293 24.6263 90.2274 22.5078 90.8836 19.2422C91.4365 16.4881 91.1471 13.1657 89.8244 10.7062ZM62.3201 21.1902V8.37065H51.0713V8.75819C52.5749 8.98037 53.288 10.112 52.6215 11.9514C49.0872 21.5105 49.2939 21.0817 49.0872 21.8464C48.865 21.1126 48.3535 19.3042 47.5371 17.0358C46.7206 14.7676 46.1626 13.2638 45.9405 12.5922C45.0775 9.94145 45.3669 8.97521 46.7724 8.7892V8.37065H39.4764V8.7892C40.5667 9.01138 41.5432 10.2566 42.3235 12.494L43.4396 15.403C44.6693 18.5446 46.1162 22.8849 46.5967 24.3524H49.02C49.8003 22.0841 52.9315 12.9848 53.35 12.0806C53.7007 11.1856 54.2279 10.3702 54.9002 9.68309C55.485 9.12101 56.2593 8.7984 57.0703 8.77885C57.3001 8.76198 57.5308 8.79376 57.7474 8.87212C57.964 8.95047 58.1617 9.07365 58.3276 9.23359C58.4933 9.39353 58.6235 9.58665 58.7097 9.80033C58.7957 10.014 58.8357 10.2434 58.8271 10.4737V11.9101V11.9514V21.1902C58.8271 22.9779 57.9643 23.8098 57.0652 23.9391V24.3524H64.0355V23.9391C63.0848 23.8098 62.3201 22.9779 62.3201 21.1902Z" fill="#08004E"/>
</svg>
