<svg width="118" height="16" viewBox="0 0 118 16" fill="none" xmlns="http://www.w3.org/2000/svg">
<path fill-rule="evenodd" clip-rule="evenodd" d="M28.8376 14.0204C26.8724 14.0204 25.5178 12.3825 25.5178 10.2422C25.5178 8.10189 26.872 6.46357 28.8376 6.46357C30.8031 6.46357 32.1574 8.10189 32.1574 10.2422C32.1569 12.3825 30.8249 14.0204 28.8376 14.0204ZM28.8376 4.67273C26.1077 4.67273 23.5962 7.00954 23.5962 10.2422C23.5962 13.4744 26.1081 15.8112 28.8376 15.8112C31.5896 15.8112 34.0789 13.4744 34.0789 10.2422C34.0789 7.00954 31.567 4.67273 28.8376 4.67273Z" fill="#08004E"/>
<path fill-rule="evenodd" clip-rule="evenodd" d="M48.2747 4.67273C46.5932 4.67273 45.5226 5.60963 44.9331 6.41622H44.5623C43.9287 5.5229 42.9457 4.67273 41.5048 4.67273C40.063 4.67273 39.124 5.5229 38.7092 6.00224H38.4033L38.032 4.78167H36.7654V15.6801H38.6874V9.46785C38.6874 7.4629 39.9105 6.32907 41.3296 6.32907C43.208 6.32907 43.4703 8.31265 43.4703 10.4274V15.6801H45.3919V9.31575C45.4581 7.39754 46.659 6.32949 48.0346 6.32949C49.913 6.32949 50.1749 8.31307 50.1749 10.4278V15.6805H52.0973V9.77331C52.0969 6.76525 50.7862 4.67273 48.2747 4.67273Z" fill="#08004E"/>
<path fill-rule="evenodd" clip-rule="evenodd" d="M60.35 4.67273C58.5457 4.67273 57.5678 5.54468 57.1546 6.02361H56.894L56.5027 4.78167H55.2415V15.6801H57.1542V9.46785C57.1542 7.54964 58.459 6.32907 60.089 6.32907C62.2401 6.32907 62.5665 8.48696 62.5665 10.4274V15.6801H64.4793V9.77331C64.4797 6.74347 63.1108 4.67273 60.35 4.67273Z" fill="#08004E"/>
<path d="M69.8515 4.78174H67.9404V15.6801H69.8515V4.78174Z" fill="#08004E"/>
<path d="M68.8961 2.57438C69.607 2.57438 70.1833 1.99809 70.1833 1.28719C70.1833 0.576295 69.607 0 68.8961 0C68.1852 0 67.6089 0.576295 67.6089 1.28719C67.6089 1.99809 68.1852 2.57438 68.8961 2.57438Z" fill="#08004E"/>
<path fill-rule="evenodd" clip-rule="evenodd" d="M76.998 9.25961C75.9274 8.97552 74.9013 8.62649 74.9013 7.62171C74.9013 6.72587 75.6873 6.15812 76.6921 6.15812C77.8494 6.15812 78.7008 6.90018 78.7008 7.70886H80.4699C80.4699 6.20169 79.1379 4.60779 76.6917 4.60779C74.6821 4.60779 73.0878 5.69972 73.0878 7.64308C73.0878 9.82737 75.1192 10.4169 76.6041 10.8104C77.8054 11.1376 78.8756 11.4871 78.8756 12.6008C78.8756 13.6713 77.9148 14.1733 76.8886 14.1733C75.6873 14.1733 74.53 13.474 74.53 12.1206H72.761C72.761 14.1079 74.3989 15.7458 76.9108 15.7458C79.0511 15.7458 80.689 14.545 80.689 12.5136C80.6886 10.264 78.6577 9.6958 76.998 9.25961Z" fill="#08004E"/>
<path fill-rule="evenodd" clip-rule="evenodd" d="M84.9492 9.08452C85.299 7.33726 86.523 6.22353 88.1403 6.22353C89.7799 6.22353 90.8727 7.40304 91.135 9.08452H84.9492ZM88.163 4.60742C85.4302 4.60742 82.9819 6.70414 82.9819 10.0893C82.9819 13.4967 85.4298 15.7459 88.1843 15.7459C90.1738 15.7459 92.0534 14.5668 92.8839 12.579H90.8727C90.3481 13.4309 89.4305 13.9769 88.1839 13.9769C86.3042 13.9769 85.0363 12.7098 84.8616 10.6788H93.124C93.3432 6.5512 90.7855 4.60742 88.163 4.60742Z" fill="#08004E"/>
<path fill-rule="evenodd" clip-rule="evenodd" d="M100.932 4.67273C99.1275 4.67273 98.1496 5.54468 97.7364 6.02361H97.4758L97.084 4.78167H95.8232V15.6801H97.736V9.46785C97.736 7.54964 99.0404 6.32907 100.671 6.32907C102.822 6.32907 103.149 8.48696 103.149 10.4274V15.6801H105.062V9.77331C105.062 6.74347 103.692 4.67273 100.932 4.67273Z" fill="#08004E"/>
<path fill-rule="evenodd" clip-rule="evenodd" d="M112.793 13.9932C111.162 13.9932 109.531 12.5757 109.531 10.2205C109.531 7.8648 111.162 6.4473 112.793 6.4473C114.228 6.4473 115.924 7.53798 115.924 10.2205C115.924 12.903 114.228 13.9932 112.793 13.9932ZM115.924 0.187744V6.4033C115.228 5.37799 114.162 4.65856 112.64 4.65856C109.878 4.65856 107.617 6.99201 107.617 10.22C107.617 13.4477 109.878 15.7811 112.64 15.7811C114.053 15.7811 115.075 15.171 115.75 14.2765H116.098L116.511 15.6722H117.772V0.187744H115.924Z" fill="#08004E"/>
<path d="M12.8941 0.217529H2.7005C1.20884 0.217529 0 1.42637 0 2.91803V13.1112C0 14.6025 1.20884 15.8113 2.7005 15.8113H3.83979H7.34227V13.5755C7.34227 11.4247 7.0762 9.77091 5.47685 9.29324V7.53131C8.07763 7.76386 9.36943 9.70051 9.36943 12.8816V15.8113H11.4879H12.8937C14.385 15.8113 15.5938 14.6025 15.5938 13.1112V2.91761C15.5942 1.42637 14.3854 0.217529 12.8941 0.217529ZM7.87483 5.85025C7.04939 5.85025 6.38023 5.18109 6.38023 4.35565C6.38023 3.53062 7.04939 2.86147 7.87483 2.86147C8.70028 2.86147 9.36943 3.53062 9.36943 4.35565C9.36943 5.18068 8.70069 5.85025 7.87483 5.85025Z" fill="#08004E"/>
</svg>
