<svg width="40" height="40" viewBox="0 0 40 40" fill="none" xmlns="http://www.w3.org/2000/svg">
<path d="M14 2V38M6 2H34C36.2091 2 38 3.79086 38 6V34C38 36.2091 36.2091 38 34 38H6C3.79086 38 2 36.2091 2 34V6C2 3.79086 3.79086 2 6 2Z" stroke="#1E1E1E" stroke-width="4" stroke-linecap="round" stroke-linejoin="round"/>
<path d="M14 2V38M6 2H34C36.2091 2 38 3.79086 38 6V34C38 36.2091 36.2091 38 34 38H6C3.79086 38 2 36.2091 2 34V6C2 3.79086 3.79086 2 6 2Z" stroke="#1B00FE" stroke-width="4" stroke-linecap="round" stroke-linejoin="round"/>
</svg>
